<mxfile host="Electron" modified="2024-02-21T14:33:43.038Z" agent="Mozilla/5.0 (Windows NT 10.0; Win64; x64) AppleWebKit/537.36 (KHTML, like Gecko) draw.io/21.1.2 Chrome/106.0.5249.199 Electron/21.4.3 Safari/537.36" etag="bXsjMD-CuI2ISzwJuV5R" version="21.1.2" type="device">
  <diagram id="C5RBs43oDa-KdzZeNtuy" name="Page-1">
    <mxGraphModel dx="1300" dy="2009" grid="1" gridSize="10" guides="1" tooltips="1" connect="1" arrows="1" fold="1" page="1" pageScale="1" pageWidth="827" pageHeight="1169" math="0" shadow="0">
      <root>
        <mxCell id="WIyWlLk6GJQsqaUBKTNV-0" />
        <mxCell id="WIyWlLk6GJQsqaUBKTNV-1" parent="WIyWlLk6GJQsqaUBKTNV-0" />
        <mxCell id="Kiu7QW-G3CXdkWPMW9wa-14" value="&lt;font style=&quot;font-size: 14px;&quot;&gt;uds_data&lt;/font&gt;" style="swimlane;whiteSpace=wrap;html=1;fillColor=#f8cecc;strokeColor=#b85450;" parent="WIyWlLk6GJQsqaUBKTNV-1" vertex="1">
          <mxGeometry x="740" y="100" width="210" height="130" as="geometry" />
        </mxCell>
        <mxCell id="Kiu7QW-G3CXdkWPMW9wa-41" value="&lt;ul&gt;&lt;li&gt;&lt;span style=&quot;font-size: 14px;&quot;&gt;Simulates the response from clients nodes&lt;/span&gt;&lt;/li&gt;&lt;/ul&gt;" style="text;html=1;strokeColor=none;fillColor=none;align=left;verticalAlign=middle;whiteSpace=wrap;rounded=0;" parent="Kiu7QW-G3CXdkWPMW9wa-14" vertex="1">
          <mxGeometry x="-15" y="66" width="240" height="30" as="geometry" />
        </mxCell>
        <mxCell id="Kiu7QW-G3CXdkWPMW9wa-10" value="&lt;font style=&quot;font-size: 14px;&quot;&gt;test_interface&lt;/font&gt;" style="swimlane;whiteSpace=wrap;html=1;startSize=30;fillColor=#fff2cc;strokeColor=#d6b656;" parent="WIyWlLk6GJQsqaUBKTNV-1" vertex="1">
          <mxGeometry x="295" y="-345" width="225" height="155" as="geometry" />
        </mxCell>
        <mxCell id="lOtJ5VHTVv45lObW3-et-1" value="&lt;ul&gt;&lt;li&gt;&lt;font style=&quot;font-size: 14px;&quot;&gt;Detailed implementations of the test cases utilizing APIs from the lower layer&lt;/font&gt;&lt;/li&gt;&lt;/ul&gt;" style="text;html=1;strokeColor=none;fillColor=none;align=left;verticalAlign=middle;whiteSpace=wrap;rounded=0;" vertex="1" parent="Kiu7QW-G3CXdkWPMW9wa-10">
          <mxGeometry x="-10" y="70" width="215" height="30" as="geometry" />
        </mxCell>
        <mxCell id="Kiu7QW-G3CXdkWPMW9wa-18" value="" style="endArrow=none;dashed=1;html=1;rounded=0;strokeWidth=2;" parent="WIyWlLk6GJQsqaUBKTNV-1" edge="1">
          <mxGeometry width="50" height="50" relative="1" as="geometry">
            <mxPoint x="120" y="-370" as="sourcePoint" />
            <mxPoint x="1040" y="-370" as="targetPoint" />
          </mxGeometry>
        </mxCell>
        <mxCell id="Kiu7QW-G3CXdkWPMW9wa-20" value="&lt;font style=&quot;font-size: 14px;&quot;&gt;Robot Framework&lt;/font&gt;" style="swimlane;whiteSpace=wrap;html=1;fillColor=#d5e8d4;strokeColor=#82b366;startSize=20;" parent="WIyWlLk6GJQsqaUBKTNV-1" vertex="1">
          <mxGeometry x="490" y="-560" width="225" height="160" as="geometry" />
        </mxCell>
        <mxCell id="lOtJ5VHTVv45lObW3-et-5" value="&lt;ul&gt;&lt;li&gt;&lt;font style=&quot;font-size: 14px;&quot;&gt;Test cases populate here, taking advantage of the framework auto-generated logs and reports&lt;/font&gt;&lt;/li&gt;&lt;/ul&gt;" style="text;html=1;strokeColor=none;fillColor=none;align=left;verticalAlign=middle;whiteSpace=wrap;rounded=0;" vertex="1" parent="Kiu7QW-G3CXdkWPMW9wa-20">
          <mxGeometry y="80" width="213" height="30" as="geometry" />
        </mxCell>
        <mxCell id="Kiu7QW-G3CXdkWPMW9wa-21" value="&lt;font style=&quot;font-size: 14px;&quot;&gt;main&lt;/font&gt;" style="swimlane;whiteSpace=wrap;html=1;fillColor=#d5e8d4;strokeColor=#82b366;" parent="WIyWlLk6GJQsqaUBKTNV-1" vertex="1">
          <mxGeometry x="190" y="-560" width="210" height="160" as="geometry" />
        </mxCell>
        <mxCell id="lOtJ5VHTVv45lObW3-et-6" value="&lt;ul&gt;&lt;li&gt;&lt;font style=&quot;font-size: 14px;&quot;&gt;Test cases implemented here are driver codes for program validation purposes&amp;nbsp;&lt;/font&gt;&lt;/li&gt;&lt;/ul&gt;" style="text;html=1;strokeColor=none;fillColor=none;align=left;verticalAlign=middle;whiteSpace=wrap;rounded=0;" vertex="1" parent="Kiu7QW-G3CXdkWPMW9wa-21">
          <mxGeometry x="-10" y="80" width="200" height="30" as="geometry" />
        </mxCell>
        <mxCell id="Kiu7QW-G3CXdkWPMW9wa-22" value="&lt;font style=&quot;font-size: 14px;&quot;&gt;db_handler&lt;/font&gt;" style="swimlane;whiteSpace=wrap;html=1;fillColor=#dae8fc;strokeColor=#6c8ebf;" parent="WIyWlLk6GJQsqaUBKTNV-1" vertex="1">
          <mxGeometry x="285" y="-110" width="210" height="130" as="geometry" />
        </mxCell>
        <mxCell id="Kiu7QW-G3CXdkWPMW9wa-40" value="&lt;ul&gt;&lt;li&gt;&lt;font style=&quot;font-size: 14px;&quot;&gt;Database decoder&lt;/font&gt;&lt;/li&gt;&lt;/ul&gt;" style="text;html=1;strokeColor=none;fillColor=none;align=left;verticalAlign=middle;whiteSpace=wrap;rounded=0;" parent="Kiu7QW-G3CXdkWPMW9wa-22" vertex="1">
          <mxGeometry x="10" y="60" width="185" height="30" as="geometry" />
        </mxCell>
        <mxCell id="Kiu7QW-G3CXdkWPMW9wa-23" value="&lt;font style=&quot;font-size: 14px;&quot;&gt;can_node&lt;/font&gt;" style="swimlane;whiteSpace=wrap;html=1;fillColor=#dae8fc;strokeColor=#6c8ebf;" parent="WIyWlLk6GJQsqaUBKTNV-1" vertex="1">
          <mxGeometry x="560" y="-110" width="270" height="130" as="geometry" />
        </mxCell>
        <mxCell id="Kiu7QW-G3CXdkWPMW9wa-38" value="&lt;ul&gt;&lt;li&gt;&lt;font style=&quot;font-size: 14px;&quot;&gt;APIs of CAN nodes basic operations&amp;nbsp;&lt;/font&gt;&lt;/li&gt;&lt;li&gt;&lt;font style=&quot;font-size: 14px;&quot;&gt;Supports comms through network layer (CANTp)&lt;/font&gt;&lt;/li&gt;&lt;/ul&gt;" style="text;html=1;strokeColor=none;fillColor=none;align=left;verticalAlign=middle;whiteSpace=wrap;rounded=0;" parent="Kiu7QW-G3CXdkWPMW9wa-23" vertex="1">
          <mxGeometry x="-18" y="60" width="280" height="30" as="geometry" />
        </mxCell>
        <mxCell id="Kiu7QW-G3CXdkWPMW9wa-25" value="&lt;font style=&quot;font-size: 14px;&quot;&gt;test_services&lt;/font&gt;" style="swimlane;whiteSpace=wrap;html=1;startSize=30;fillColor=#fff2cc;strokeColor=#d6b656;" parent="WIyWlLk6GJQsqaUBKTNV-1" vertex="1">
          <mxGeometry x="630" y="-340" width="170" height="145" as="geometry" />
        </mxCell>
        <mxCell id="lOtJ5VHTVv45lObW3-et-0" value="&lt;ul&gt;&lt;li&gt;&lt;font style=&quot;font-size: 14px;&quot;&gt;Contains services that can be handled by the scripts in enums&lt;/font&gt;&lt;/li&gt;&lt;/ul&gt;" style="text;html=1;strokeColor=none;fillColor=none;align=left;verticalAlign=middle;whiteSpace=wrap;rounded=0;" vertex="1" parent="Kiu7QW-G3CXdkWPMW9wa-25">
          <mxGeometry x="-20" y="70" width="200" height="30" as="geometry" />
        </mxCell>
        <mxCell id="Kiu7QW-G3CXdkWPMW9wa-26" value="&lt;font style=&quot;font-size: 14px;&quot;&gt;data.json&lt;/font&gt;" style="swimlane;whiteSpace=wrap;html=1;fillColor=#f8cecc;strokeColor=#b85450;" parent="WIyWlLk6GJQsqaUBKTNV-1" vertex="1">
          <mxGeometry x="440" y="100" width="230" height="130" as="geometry" />
        </mxCell>
        <mxCell id="Kiu7QW-G3CXdkWPMW9wa-27" value="" style="endArrow=none;dashed=1;html=1;rounded=0;strokeWidth=2;" parent="WIyWlLk6GJQsqaUBKTNV-1" edge="1">
          <mxGeometry width="50" height="50" relative="1" as="geometry">
            <mxPoint x="120" y="-140" as="sourcePoint" />
            <mxPoint x="1060" y="-140" as="targetPoint" />
          </mxGeometry>
        </mxCell>
        <mxCell id="Kiu7QW-G3CXdkWPMW9wa-29" value="&lt;font style=&quot;font-size: 14px;&quot;&gt;Inputs&lt;/font&gt;" style="swimlane;whiteSpace=wrap;html=1;fillColor=#e1d5e7;strokeColor=#9673a6;" parent="WIyWlLk6GJQsqaUBKTNV-1" vertex="1">
          <mxGeometry x="800" y="-560" width="200" height="120" as="geometry" />
        </mxCell>
        <mxCell id="Kiu7QW-G3CXdkWPMW9wa-31" value="&lt;ul&gt;&lt;li&gt;&lt;font style=&quot;font-size: 15px;&quot;&gt;Database file (.dbc)&lt;/font&gt;&lt;/li&gt;&lt;li style=&quot;text-align: left;&quot;&gt;&lt;font style=&quot;font-size: 15px;&quot;&gt;Configuration dicts&amp;nbsp;&lt;/font&gt;&lt;/li&gt;&lt;/ul&gt;" style="text;html=1;align=center;verticalAlign=middle;resizable=0;points=[];autosize=1;strokeColor=none;fillColor=none;" parent="Kiu7QW-G3CXdkWPMW9wa-29" vertex="1">
          <mxGeometry x="-10" y="40" width="190" height="70" as="geometry" />
        </mxCell>
        <mxCell id="Kiu7QW-G3CXdkWPMW9wa-43" value="&lt;ul&gt;&lt;li&gt;&lt;span style=&quot;font-size: 14px;&quot;&gt;Simulates data transmitted based on the .dbc file provided by user&lt;/span&gt;&lt;/li&gt;&lt;/ul&gt;" style="text;html=1;strokeColor=none;fillColor=none;align=left;verticalAlign=middle;whiteSpace=wrap;rounded=0;" parent="WIyWlLk6GJQsqaUBKTNV-1" vertex="1">
          <mxGeometry x="430" y="166" width="240" height="30" as="geometry" />
        </mxCell>
        <mxCell id="Kiu7QW-G3CXdkWPMW9wa-46" value="" style="shape=curlyBracket;whiteSpace=wrap;html=1;rounded=1;flipH=1;labelPosition=right;verticalLabelPosition=middle;align=left;verticalAlign=middle;" parent="WIyWlLk6GJQsqaUBKTNV-1" vertex="1">
          <mxGeometry x="1082" y="-370" width="20" height="610" as="geometry" />
        </mxCell>
        <mxCell id="Kiu7QW-G3CXdkWPMW9wa-47" value="&lt;font style=&quot;font-size: 17px;&quot;&gt;&lt;b&gt;./can_test&lt;/b&gt;&lt;/font&gt;" style="text;html=1;strokeColor=none;fillColor=none;align=center;verticalAlign=middle;whiteSpace=wrap;rounded=0;" parent="WIyWlLk6GJQsqaUBKTNV-1" vertex="1">
          <mxGeometry x="1160" y="-80" width="60" height="30" as="geometry" />
        </mxCell>
        <mxCell id="Kiu7QW-G3CXdkWPMW9wa-48" value="" style="rounded=0;whiteSpace=wrap;html=1;fillColor=none;" parent="WIyWlLk6GJQsqaUBKTNV-1" vertex="1">
          <mxGeometry x="1130" y="-95" width="120" height="60" as="geometry" />
        </mxCell>
        <mxCell id="Kiu7QW-G3CXdkWPMW9wa-49" value="" style="endArrow=classic;html=1;rounded=0;exitX=0.5;exitY=0;exitDx=0;exitDy=0;entryX=0.5;entryY=1;entryDx=0;entryDy=0;" parent="WIyWlLk6GJQsqaUBKTNV-1" source="Kiu7QW-G3CXdkWPMW9wa-26" target="Kiu7QW-G3CXdkWPMW9wa-23" edge="1">
          <mxGeometry width="50" height="50" relative="1" as="geometry">
            <mxPoint x="560" y="80" as="sourcePoint" />
            <mxPoint x="610" y="30" as="targetPoint" />
          </mxGeometry>
        </mxCell>
        <mxCell id="Kiu7QW-G3CXdkWPMW9wa-50" value="" style="endArrow=classic;html=1;rounded=0;exitX=0.5;exitY=0;exitDx=0;exitDy=0;" parent="WIyWlLk6GJQsqaUBKTNV-1" source="Kiu7QW-G3CXdkWPMW9wa-14" edge="1">
          <mxGeometry width="50" height="50" relative="1" as="geometry">
            <mxPoint x="450" y="-60" as="sourcePoint" />
            <mxPoint x="700" y="20" as="targetPoint" />
          </mxGeometry>
        </mxCell>
      </root>
    </mxGraphModel>
  </diagram>
</mxfile>
